<svg width="8.500000in" height="11.000000in" viewBox="0.000000 0.000000 816.000000 1056.000000" xmlns="http://www.w3.org/2000/svg">

<defs>
  <marker style="overflow:visible" id="Arrow1Sstart" refX="0.0" refY="0.0" orient="auto">
       <path transform="scale(0.2) translate(6,0)" style="fill-rule:evenodd;fill:context-stroke;stroke:context-stroke;stroke-width:1.0pt" d="M 0.0,0.0 L 5.0,-5.0 L -12.5,0.0 L 5.0,5.0 L 0.0,0.0 z "/>
    </marker>
</defs>
        

<line id="9" x1="285.811948" x2="639.764502" y1="378.659048" y2="296.235498" stroke="orange" stroke-width="5" marker-start="url(#Arrow1Sstart)"/> /&gt;
        

<line id="8" x1="285.811948" x2="408.000000" y1="378.659048" y2="528.000000" stroke="purple" stroke-width="5" marker-start="url(#Arrow1Sstart)"/> /&gt;
        

<line id="7" x1="427.200000" x2="504.000000" y1="336.000000" y2="432.000000" stroke="black" stroke-width="5" marker-start="url(#Arrow1Sstart)"/> /&gt;
        

<line id="6" x1="417.552357" x2="504.000000" y1="432.476430" y2="432.000000" stroke="brown" stroke-width="5" marker-start="url(#Arrow1Sstart)"/> /&gt;
        

<circle id="4" cx="68.6" cy="460.1" r="3" stroke="brown" fill="brown" stroke-width="1"/>
        

<g id="2">
    <line x1="735.764502" x2="639.764502" y1="296.235498" y2="296.235498" stroke="red" stroke-width="5" marker-start="url(#Arrow1Sstart)"/> /&gt;
    <line x1="639.764502" x2="639.764502" y1="200.235498" y2="296.235498" stroke="green" stroke-width="5" marker-start="url(#Arrow1Sstart)"/> /&gt;
    <text x="644.764502" y="291.235498">{c}</text>
</g>
        

<circle id="5" cx="-15.8" cy="855.8" r="3" stroke="orange" fill="orange" stroke-width="1"/>
        

<circle id="3" cx="216.0" cy="624.0" r="3" stroke="purple" fill="purple" stroke-width="1"/>
        

<g id="1">
    <line x1="571.882251" x2="504.000000" y1="364.117749" y2="432.000000" stroke="red" stroke-width="5" marker-start="url(#Arrow1Sstart)"/> /&gt;
    <line x1="436.117749" x2="504.000000" y1="364.117749" y2="432.000000" stroke="green" stroke-width="5" marker-start="url(#Arrow1Sstart)"/> /&gt;
    <text x="509.000000" y="427.000000">{b}</text>
</g>
        

<g id="0">
    <line x1="504.000000" x2="408.000000" y1="528.000000" y2="528.000000" stroke="red" stroke-width="5" marker-start="url(#Arrow1Sstart)"/> /&gt;
    <line x1="408.000000" x2="408.000000" y1="432.000000" y2="528.000000" stroke="green" stroke-width="5" marker-start="url(#Arrow1Sstart)"/> /&gt;
    <text x="413.000000" y="523.000000">{a}</text>
</g>
        
</svg>
